<?xml version="1.0" standalone="no"?>
<!DOCTYPE svg PUBLIC "-//W3C//DTD SVG 20010904//EN"
 "http://www.w3.org/TR/2001/REC-SVG-20010904/DTD/svg10.dtd">
<svg version="1.0" xmlns="http://www.w3.org/2000/svg"
 width="16.000000pt" height="16.000000pt" viewBox="0 0 16.000000 16.000000"
 preserveAspectRatio="xMidYMid meet">
<metadata>
Created by potrace 1.11, written by Peter Selinger 2001-2013
</metadata>
<g transform="translate(0.000000,16.000000) scale(0.005882,-0.005882)"
fill="#000000" stroke="none">
<path d="M175 2230 c-50 -11 -71 -27 -86 -67 -18 -48 -14 -172 9 -293 13 -65
12 -59 47 -210 20 -86 99 -266 165 -375 20 -34 39 -69 43 -78 3 -9 11 -17 17
-17 5 0 10 -5 10 -11 0 -26 180 -225 276 -307 118 -100 439 -282 496 -282 8 0
18 -4 23 -9 21 -18 222 -73 280 -76 43 -3 208 31 292 59 39 13 74 22 77 19 3
-3 12 2 21 10 8 9 22 14 30 11 8 -4 17 0 20 8 3 8 30 27 59 42 29 15 66 39 81
52 15 13 31 24 35 24 17 0 144 112 205 181 65 74 151 202 187 279 22 48 51
113 53 123 2 4 3 8 5 10 1 1 3 9 5 17 2 8 15 48 29 88 13 39 23 72 21 72 -2 0
2 21 9 48 17 62 10 138 -14 164 -19 20 -82 26 -140 13 -14 -3 -36 -8 -50 -11
-13 -3 -29 -9 -35 -13 -5 -5 -23 -11 -40 -15 -50 -12 -246 -114 -310 -161 -33
-24 -84 -65 -114 -92 -58 -52 -171 -185 -171 -202 0 -6 -4 -11 -9 -11 -5 0
-13 -10 -17 -22 -4 -13 -10 -25 -13 -28 -27 -20 -131 -272 -145 -350 -2 -14
-5 -26 -7 -27 -1 -2 -3 -7 -4 -13 -1 -5 -4 -12 -5 -15 -4 -8 -7 -24 -9 -40 0
-8 -6 -15 -12 -15 -6 0 -9 6 -6 14 3 7 2 17 -3 22 -8 9 -16 48 -26 129 -9 68
-45 206 -76 290 -86 232 -215 435 -382 601 -101 101 -290 254 -314 254 -5 0
-15 6 -21 13 -6 8 -32 24 -58 37 -27 13 -60 32 -75 43 -28 18 -238 109 -238
103 0 -2 -19 2 -42 8 -24 7 -56 10 -73 6z"/>
</g>
</svg>
